<svg xmlns="http://www.w3.org/2000/svg" width="26.274" height="26.274" viewBox="0 0 26.274 26.274"><defs><style>.a{fill:#e60a0a;}</style></defs><g transform="translate(61.137 -76.863)"><path class="a" d="M20.9,2.543A13.137,13.137,0,0,0,0,13.137c0,.06,0,.206,0,.22a13.136,13.136,0,0,0,26.268,0c0-.013,0-.174,0-.22A13.184,13.184,0,0,0,20.9,2.543Zm-10.575-1.4A8.95,8.95,0,0,0,8.266,3.925,12.245,12.245,0,0,1,6.331,2.875a12.177,12.177,0,0,1,4-1.73ZM.821,13.137A12.358,12.358,0,0,1,5.626,3.385a13.109,13.109,0,0,0,2.3,1.283,21.827,21.827,0,0,0-1.559,8.469,26.115,26.115,0,0,0,.146,2.771C3.067,15.323.928,14.326.828,13.385.827,13.3.821,13.22.821,13.137Zm.127,1.72a13.912,13.912,0,0,0,5.665,1.889,19.279,19.279,0,0,0,1.308,4.861A13.11,13.11,0,0,0,5.626,22.89,12.371,12.371,0,0,1,.948,14.857ZM6.331,23.4a12.244,12.244,0,0,1,1.935-1.051,8.971,8.971,0,0,0,2.057,2.78A12.177,12.177,0,0,1,6.331,23.4Zm6.4,2.021c-1.427-.2-2.717-1.449-3.693-3.373a12.26,12.26,0,0,1,3.693-.692Zm0-4.886a13.062,13.062,0,0,0-4.041.768,18.5,18.5,0,0,1-1.22-4.43,42.477,42.477,0,0,0,5.261.368Zm0-4.116a41.086,41.086,0,0,1-5.375-.38,24.925,24.925,0,0,1-.168-2.9,21.171,21.171,0,0,1,1.5-8.165,13.062,13.062,0,0,0,4.041.768Zm0-11.5a12.26,12.26,0,0,1-3.693-.692C10.01,2.3,11.3,1.056,12.727.854Zm7.217-2.044a12.243,12.243,0,0,1-1.935,1.051,8.951,8.951,0,0,0-2.062-2.781,12.177,12.177,0,0,1,4,1.73ZM13.548.854c1.427.2,2.717,1.449,3.693,3.373a12.26,12.26,0,0,1-3.693.692Zm0,4.886a13.062,13.062,0,0,0,4.041-.768,18.79,18.79,0,0,1,1.274,4.793c-.675-.092-1.37-.165-2.072-.223a1.231,1.231,0,1,0-.068.816q1.189.1,2.239.25a25.061,25.061,0,0,1,.128,2.53,24.928,24.928,0,0,1-.168,2.9,41.087,41.087,0,0,1-5.375.38Zm0,11.5a42.477,42.477,0,0,0,5.261-.368,18.5,18.5,0,0,1-1.22,4.43,13.062,13.062,0,0,0-4.041-.768Zm0,8.181V21.355a12.26,12.26,0,0,1,3.693.692C16.264,23.972,14.975,25.218,13.548,25.421Zm2.4-.291a8.969,8.969,0,0,0,2.057-2.781A12.244,12.244,0,0,1,19.943,23.4a12.177,12.177,0,0,1-3.993,1.729Zm4.7-2.24a13.11,13.11,0,0,0-2.295-1.283,19.28,19.28,0,0,0,1.308-4.861,13.911,13.911,0,0,0,5.665-1.889,12.372,12.372,0,0,1-4.678,8.033ZM20.639,10.9c3.017.621,4.765,1.562,4.81,2.386,0,.034,0,.068,0,.1-.1.94-2.239,1.937-5.681,2.523a26.106,26.106,0,0,0,.146-2.771,21.827,21.827,0,0,0-1.559-8.469,13.11,13.11,0,0,0,2.3-1.283,12.371,12.371,0,0,1,4.73,8.424,12.15,12.15,0,0,0-4.824-1.767q.05.424.085.856Z" transform="translate(-61.137 76.863)"/></g></svg>