<svg width="266" height="212" viewBox="0 0 266 212" fill="none" xmlns="http://www.w3.org/2000/svg">
<path d="M204.567 211.777C224.458 213.673 249.323 203.021 260.293 179.674C264.835 170.007 267.851 157.601 264.703 146.907C262.295 138.825 252.155 129.665 249.978 121.422C247.763 113.092 248.075 103.709 249.214 94.9525C252.484 69.765 234.289 30.5 195.89 26.3051C166.768 23.1269 153.593 53.6862 128.809 57.8582C103.796 62.0668 74.467 36.7923 56.5767 57.8582C34.358 83.9982 44.7855 110.161 47.4891 122.402C50.9627 138.128 33.9815 156.076 37.4822 179.225C45.3147 230.974 102.222 196.083 118.894 193.88C135.835 191.659 152.646 198.171 169.244 203.396C185.842 208.621 203.427 212.555 219.655 205.379L204.567 211.777Z" fill="#F8F8F8"/>
<path d="M181.96 203.618H71.8932C69.2792 203.615 66.7732 202.575 64.9252 200.726C63.0771 198.877 62.0381 196.371 62.0361 193.757V151.448C61.8082 151.708 61.5697 151.965 61.3241 152.214V193.757C61.3266 196.56 62.4409 199.247 64.4223 201.229C66.4038 203.211 69.0906 204.326 71.8932 204.33H182.269C182.162 204.095 182.059 203.856 181.96 203.618ZM62.0361 47.2345C62.0381 44.6205 63.0771 42.1141 64.9252 40.2654C66.7732 38.4167 69.2792 37.3768 71.8932 37.3738H108.567C108.499 37.1353 108.435 36.9004 108.374 36.6619H71.8932C69.0906 36.6654 66.4038 37.7805 64.4223 39.7626C62.4409 41.7447 61.3266 44.4319 61.3241 47.2345V152.906C61.5697 153.155 61.8047 153.411 62.0361 153.671V47.2345ZM209.826 55.5503L186.829 37.3347C186.28 36.8994 185.601 36.6623 184.9 36.6619H164.434C164.377 36.9004 164.314 37.1389 164.246 37.3738H184.9C185.44 37.3751 185.963 37.5568 186.388 37.89L209.384 56.1092C209.603 56.2813 209.779 56.5009 209.9 56.7514C210.021 57.0018 210.083 57.2764 210.082 57.5545V163.577C210.321 163.584 210.559 163.602 210.794 163.619V57.5545C210.795 57.1688 210.709 56.788 210.541 56.4407C210.373 56.0935 210.129 55.789 209.826 55.5503Z" fill="#2A2B3A"/>
<path d="M209.52 56.4934H190.964C190.294 56.4934 189.629 56.3613 189.01 56.1046C188.39 55.848 187.827 55.4717 187.353 54.9974C186.878 54.5232 186.502 53.9601 186.245 53.3404C185.989 52.7207 185.857 52.0566 185.857 51.3858V37.6807C185.857 37.6207 185.874 37.5619 185.905 37.5111C185.937 37.4603 185.983 37.4195 186.037 37.3933C186.091 37.3672 186.151 37.3569 186.211 37.3634C186.27 37.37 186.327 37.3933 186.374 37.4305L209.718 55.924C209.77 55.9651 209.808 56.0215 209.827 56.0851C209.845 56.1487 209.843 56.2166 209.822 56.2792C209.8 56.3417 209.759 56.396 209.705 56.4344C209.651 56.4728 209.586 56.4934 209.52 56.4934Z" fill="#E6E6E6"/>
<path d="M209.522 56.8512H190.966C189.518 56.8496 188.129 56.2734 187.105 55.2492C186.08 54.2249 185.504 52.8361 185.502 51.3876V37.6826C185.502 37.5557 185.538 37.4314 185.606 37.3238C185.673 37.2163 185.769 37.13 185.884 37.0747C185.998 37.0195 186.125 36.9975 186.252 37.0114C186.378 37.0252 186.497 37.0744 186.597 37.1532L209.941 55.6469C210.051 55.7339 210.131 55.853 210.17 55.9876C210.209 56.1222 210.206 56.2657 210.16 56.3981C210.114 56.5305 210.027 56.6453 209.913 56.7265C209.799 56.8077 209.662 56.8513 209.522 56.8512ZM186.214 37.7586V51.3876C186.216 52.6474 186.717 53.8552 187.608 54.746C188.499 55.6368 189.706 56.1379 190.966 56.1393H209.416L186.214 37.7586Z" fill="#2A2B3A"/>
<path d="M154.291 80.4887H116.971C116.508 80.4887 116.064 80.2499 115.737 79.8247C115.409 79.3995 115.225 78.8228 115.225 78.2215C115.225 77.6201 115.409 77.0434 115.737 76.6182C116.064 76.193 116.508 75.9542 116.971 75.9542H154.291C154.754 75.9542 155.198 76.193 155.525 76.6182C155.853 77.0434 156.036 77.6201 156.036 78.2215C156.036 78.8228 155.853 79.3995 155.525 79.8247C155.198 80.2499 154.754 80.4887 154.291 80.4887Z" fill="#2A2B3A"/>
<path d="M182.955 89.5579H117.781C117.103 89.5579 116.453 89.319 115.974 88.8938C115.495 88.4686 115.225 87.8919 115.225 87.2906C115.225 86.6893 115.495 86.1126 115.974 85.6874C116.453 85.2622 117.103 85.0233 117.781 85.0233H182.955C183.633 85.0233 184.283 85.2622 184.763 85.6874C185.242 86.1126 185.511 86.6893 185.511 87.2906C185.511 87.8919 185.242 88.4686 184.763 88.8938C184.283 89.319 183.633 89.5579 182.955 89.5579Z" fill="#2A2B3A"/>
<path d="M169.483 117.899H117.65C117.007 117.899 116.39 117.66 115.936 117.235C115.481 116.81 115.225 116.233 115.225 115.632C115.225 115.03 115.481 114.454 115.936 114.028C116.39 113.603 117.007 113.364 117.65 113.364H169.483C170.126 113.364 170.742 113.603 171.197 114.028C171.652 114.454 171.907 115.03 171.907 115.632C171.907 116.233 171.652 116.81 171.197 117.235C170.742 117.66 170.126 117.899 169.483 117.899Z" fill="#E6E6E6"/>
<path d="M182.955 126.968H117.781C117.103 126.968 116.453 126.729 115.974 126.304C115.495 125.879 115.225 125.302 115.225 124.701C115.225 124.1 115.495 123.523 115.974 123.098C116.453 122.672 117.103 122.434 117.781 122.434H182.955C183.633 122.434 184.283 122.672 184.763 123.098C185.242 123.523 185.511 124.1 185.511 124.701C185.511 125.302 185.242 125.879 184.763 126.304C184.283 126.729 183.633 126.968 182.955 126.968Z" fill="#E6E6E6"/>
<path d="M172.738 157.577H117.796C117.458 157.577 117.124 157.518 116.812 157.404C116.5 157.29 116.217 157.123 115.978 156.912C115.739 156.702 115.55 156.452 115.421 156.177C115.292 155.902 115.225 155.607 115.225 155.309C115.225 155.011 115.292 154.717 115.421 154.442C115.55 154.166 115.739 153.917 115.978 153.706C116.217 153.495 116.5 153.328 116.812 153.215C117.124 153.101 117.458 153.042 117.796 153.042H172.738C173.42 153.042 174.074 153.281 174.556 153.706C175.038 154.131 175.308 154.708 175.308 155.309C175.308 155.911 175.038 156.487 174.556 156.912C174.074 157.338 173.42 157.577 172.738 157.577Z" fill="#E6E6E6"/>
<path d="M151.275 166.646H116.586C116.407 166.646 116.23 166.587 116.065 166.473C115.9 166.359 115.75 166.192 115.624 165.982C115.497 165.771 115.397 165.521 115.329 165.246C115.26 164.971 115.225 164.676 115.225 164.378C115.225 164.081 115.26 163.786 115.329 163.511C115.397 163.236 115.497 162.986 115.624 162.775C115.75 162.565 115.9 162.398 116.065 162.284C116.23 162.17 116.407 162.111 116.586 162.111H151.275C151.454 162.111 151.631 162.17 151.796 162.284C151.961 162.398 152.111 162.565 152.237 162.775C152.363 162.986 152.464 163.236 152.532 163.511C152.6 163.786 152.636 164.081 152.636 164.378C152.636 164.676 152.6 164.971 152.532 165.246C152.464 165.521 152.363 165.771 152.237 165.982C152.111 166.192 151.961 166.359 151.796 166.473C151.631 166.587 151.454 166.646 151.275 166.646Z" fill="#E6E6E6"/>
<path d="M95.3703 90.8982C100.355 90.8982 104.397 86.857 104.397 81.8719C104.397 76.8867 100.355 72.8455 95.3703 72.8455C90.3852 72.8455 86.344 76.8867 86.344 81.8719C86.344 86.857 90.3852 90.8982 95.3703 90.8982Z" fill="#2A2B3A"/>
<path d="M94.4748 85.3167C94.2717 85.317 94.0741 85.2513 93.9116 85.1295L93.9015 85.122L91.7802 83.4992C91.6818 83.424 91.5991 83.3301 91.537 83.2229C91.4748 83.1156 91.4344 82.9972 91.4181 82.8744C91.4018 82.7515 91.4099 82.6267 91.4418 82.507C91.4738 82.3872 91.5291 82.275 91.6045 82.1767C91.6799 82.0783 91.7739 81.9958 91.8812 81.9338C91.9885 81.8719 92.107 81.8317 92.2299 81.8155C92.3527 81.7994 92.4776 81.8077 92.5973 81.8398C92.7169 81.872 92.8291 81.9274 92.9273 82.003L94.3013 83.0566L97.5482 78.8207C97.6235 78.7225 97.7174 78.6401 97.8245 78.5782C97.9317 78.5163 98.05 78.476 98.1726 78.4598C98.2953 78.4436 98.42 78.4517 98.5395 78.4837C98.6591 78.5157 98.7711 78.5709 98.8694 78.6462C99.0675 78.7985 99.1979 79.0233 99.2306 79.2711C99.2633 79.5188 99.1963 79.7694 99.0445 79.9678L95.2254 84.9479C95.1371 85.0627 95.0235 85.1555 94.8935 85.2193C94.7634 85.2831 94.6204 85.316 94.4756 85.3156L94.4748 85.3167Z" fill="white"/>
<path d="M95.3703 129.526C100.355 129.526 104.397 125.485 104.397 120.5C104.397 115.515 100.355 111.474 95.3703 111.474C90.3852 111.474 86.344 115.515 86.344 120.5C86.344 125.485 90.3852 129.526 95.3703 129.526Z" fill="#E6E6E6"/>
<path d="M94.4736 123.94C94.2706 123.941 94.0729 123.875 93.9104 123.753L93.9004 123.746L91.7791 122.123C91.5806 121.971 91.4508 121.746 91.418 121.498C91.3853 121.25 91.4524 121 91.6045 120.801C91.7566 120.603 91.9813 120.473 92.2292 120.44C92.477 120.407 92.7277 120.474 92.9262 120.627L94.3002 121.68L97.547 117.444C97.6223 117.346 97.7162 117.264 97.8234 117.202C97.9305 117.14 98.0488 117.1 98.1715 117.083C98.2942 117.067 98.4188 117.075 98.5384 117.107C98.6579 117.139 98.77 117.195 98.8682 117.27L98.8483 117.298L98.869 117.27C99.0671 117.422 99.1968 117.647 99.2294 117.895C99.2621 118.142 99.1952 118.393 99.0433 118.591L95.2243 123.572C95.1359 123.686 95.0223 123.779 94.8923 123.843C94.7623 123.907 94.6193 123.94 94.4745 123.939L94.4736 123.94Z" fill="white"/>
<path d="M95.3703 168.15C100.355 168.15 104.397 164.109 104.397 159.123C104.397 154.138 100.355 150.097 95.3703 150.097C90.3852 150.097 86.344 154.138 86.344 159.123C86.344 164.109 90.3852 168.15 95.3703 168.15Z" fill="#E6E6E6"/>
<path d="M94.4748 162.568C94.2717 162.569 94.0741 162.503 93.9116 162.381L93.9015 162.374L91.7802 160.751C91.6818 160.676 91.5991 160.582 91.537 160.474C91.4748 160.367 91.4344 160.249 91.4181 160.126C91.4018 160.003 91.4099 159.878 91.4418 159.759C91.4738 159.639 91.5291 159.527 91.6045 159.428C91.6799 159.33 91.7739 159.247 91.8812 159.185C91.9885 159.124 92.107 159.083 92.2299 159.067C92.3527 159.051 92.4776 159.059 92.5973 159.091C92.7169 159.124 92.8291 159.179 92.9273 159.255L94.3013 160.308L97.5482 156.072C97.6235 155.974 97.7174 155.892 97.8245 155.83C97.9317 155.768 98.05 155.728 98.1726 155.711C98.2953 155.695 98.42 155.703 98.5395 155.735C98.6591 155.767 98.7711 155.823 98.8694 155.898L98.8495 155.926L98.8702 155.898C99.0683 156.05 99.1979 156.275 99.2306 156.523C99.2633 156.77 99.1963 157.021 99.0445 157.219L95.2254 162.2C95.1371 162.314 95.0235 162.407 94.8935 162.471C94.7634 162.535 94.6204 162.568 94.4756 162.567L94.4748 162.568Z" fill="white"/>
<path d="M152.179 54.198C147.602 57.1293 142.298 58.7278 136.863 58.8142C131.428 58.9007 126.076 57.4718 121.407 54.6876C122.229 53.1588 123.269 51.7584 124.496 50.531C126.389 48.629 128.693 47.1862 131.231 46.3134C133.768 45.4407 136.472 45.1613 139.135 45.4967C141.797 45.8321 144.347 46.7734 146.589 48.2482C148.831 49.723 150.705 51.6921 152.068 54.0042C152.104 54.0666 152.143 54.1323 152.179 54.198Z" fill="#2A2B3A"/>
<path d="M135.506 38.4847C143.528 38.4847 150.03 31.9821 150.03 23.9607C150.03 15.9393 143.528 9.43671 135.506 9.43671C127.485 9.43671 120.982 15.9393 120.982 23.9607C120.982 31.9821 127.485 38.4847 135.506 38.4847Z" fill="#2F2E41"/>
<path d="M144.889 34.2035C147.753 28.965 145.828 22.397 140.589 19.5333C135.351 16.6697 128.783 18.5949 125.919 23.8334C123.056 29.0719 124.981 35.64 130.219 38.5036C135.458 41.3672 142.026 39.442 144.889 34.2035Z" fill="#E0CACD"/>
<path d="M125.468 22.2176C127.938 23.9201 130.87 24.8262 133.87 24.8142C132.8 25.5562 131.582 26.0575 130.299 26.2833C134.288 27.139 138.411 27.1621 142.409 26.3514C143.297 26.2089 144.155 25.9143 144.944 25.4807C145.337 25.2612 145.679 24.9614 145.949 24.6009C146.218 24.2404 146.409 23.8271 146.508 23.3881C146.774 21.8703 145.591 20.4914 144.362 19.5621C142.481 18.1609 140.311 17.1956 138.01 16.7358C135.71 16.2761 133.336 16.3335 131.06 16.9039C129.574 17.288 128.085 17.9369 127.12 19.1303C126.155 20.3237 125.869 22.1634 126.789 23.3922L125.468 22.2176Z" fill="#2F2E41"/>
<path d="M136.396 0C128.555 0.00871758 121.038 3.12696 115.494 8.67069C109.949 14.2144 106.83 21.731 106.82 29.5715C106.822 31.9633 107.116 34.3459 107.696 36.6662C107.757 36.9047 107.817 37.1432 107.881 37.3782C109.587 43.6326 113.303 49.1522 118.456 53.086C123.609 57.0198 129.913 59.1494 136.396 59.1465C142.88 59.1463 149.184 57.0159 154.339 53.0828C159.494 49.1497 163.215 43.6319 164.927 37.3782C164.992 37.1397 165.052 36.9047 165.109 36.6662C166.181 32.3099 166.249 27.7669 165.308 23.3805C164.366 18.9941 162.439 14.8792 159.673 11.3471C156.907 7.81493 153.374 4.95793 149.341 2.99211C145.309 1.0263 140.882 0.00313854 136.396 0ZM164.433 36.6662C164.376 36.9047 164.312 37.1432 164.244 37.3782C163.043 41.6557 160.873 45.5992 157.902 48.9028C154.931 52.2063 151.239 54.7812 147.112 56.4278C142.986 58.0744 138.535 58.7484 134.106 58.3976C129.677 58.0467 125.388 56.6805 121.572 54.4048C115.23 50.5884 110.579 44.5005 108.565 37.3782C108.497 37.1397 108.433 36.9047 108.372 36.6662C107.779 34.3479 107.479 31.9644 107.479 29.5715C107.484 25.4753 108.359 21.4269 110.046 17.6944C111.733 13.9618 114.194 10.6303 117.266 7.92056C120.337 5.21079 123.95 3.1846 127.864 1.97618C131.777 0.767766 135.903 0.404709 139.968 0.911054C144.033 1.4174 147.943 2.78159 151.441 4.91327C154.939 7.04495 157.944 9.89547 160.257 13.276C162.57 16.6566 164.138 20.49 164.858 24.5224C165.578 28.5548 165.433 32.6941 164.433 36.6662Z" fill="#3F3D56"/>
<path d="M29.2666 75.413L28.5547 75.4047C28.5632 74.6927 28.5837 73.9702 28.6157 73.2573L29.3269 73.2893C29.2953 73.9943 29.275 74.7089 29.2666 75.413Z" fill="#E6E6E6"/>
<path d="M29.6433 69.2188L28.9355 69.1416C29.0842 67.7807 29.2789 66.4083 29.5142 65.0624L30.2156 65.1851C29.9828 66.5159 29.7903 67.873 29.6433 69.2188ZM31.0467 61.1965L30.3547 61.0289C30.6769 59.6993 31.0469 58.3634 31.4545 57.0578L32.1341 57.2699C31.7311 58.5608 31.3652 59.882 31.0467 61.1965ZM33.4754 53.4177L32.8109 53.1618C33.3026 51.8846 33.8429 50.6065 34.4166 49.363L35.063 49.6613C34.4957 50.8909 33.9616 52.1547 33.4754 53.4177ZM36.89 46.0157L36.2641 45.6764C36.916 44.4743 37.6161 43.2769 38.3451 42.1173L38.9478 42.4963C38.2269 43.6429 37.5346 44.827 36.89 46.0157ZM41.2273 39.1167L40.6501 38.6998C41.4511 37.5907 42.2986 36.493 43.1691 35.4374L43.7184 35.8904C42.8575 36.9344 42.0194 38.0197 41.2273 39.1167ZM46.4104 32.8305L45.8912 32.3434C46.8266 31.3464 47.807 30.3662 48.8052 29.4299L49.2922 29.9493C48.3051 30.8752 47.3355 31.8446 46.4104 32.8305ZM52.3518 27.2582L51.8989 26.7089C52.9542 25.8387 54.0514 24.9917 55.1598 24.1915L55.5766 24.7685C54.4804 25.5601 53.3955 26.3978 52.3518 27.2582ZM58.9538 22.4912L58.5749 21.8884C59.7329 21.1604 60.929 20.4611 62.1302 19.8098L62.4695 20.4356C61.2818 21.0798 60.0989 21.7712 58.9538 22.4912ZM66.1095 18.6113L65.8112 17.9647C67.0519 17.3923 68.3275 16.853 69.6027 16.3616L69.8587 17.0259C68.5977 17.5118 67.3363 18.0452 66.1095 18.6113ZM73.7013 15.6867L73.4888 15.007C74.7938 14.5991 76.1297 14.2285 77.4594 13.9057L77.6273 14.5975C76.3125 14.9168 74.9916 15.2832 73.7013 15.6867ZM81.6155 13.7647L81.4926 13.0635C82.8382 12.8277 84.2106 12.6325 85.5716 12.4833L85.6491 13.1911C84.3032 13.3385 82.9461 13.5316 81.6155 13.7647Z" fill="#E6E6E6"/>
<path d="M89.7326 12.8792L89.7006 12.1679C90.4138 12.136 91.1362 12.1155 91.8479 12.1069L91.8564 12.8189C91.1525 12.8272 90.4379 12.8476 89.7326 12.8792Z" fill="#E6E6E6"/>
<path d="M31.8959 73.1198L31.3872 72.6211L28.933 75.1311L26.6084 72.5001L26.0748 72.9724L28.9067 76.1763L31.8959 73.1198Z" fill="#E6E6E6"/>
<path d="M89.5676 15.4482L89.0688 14.9395L91.5789 12.4853L88.9478 10.1608L89.4202 9.62714L92.624 12.459L89.5676 15.4482Z" fill="#E6E6E6"/>
<path d="M196.085 19.9154C195.458 19.5856 194.827 19.2616 194.191 18.9432L194.509 18.3066C195.15 18.6269 195.785 18.9532 196.416 19.2853L196.085 19.9154Z" fill="#E6E6E6"/>
<path d="M244.463 151.317L243.804 151.047C244.34 149.74 244.855 148.407 245.335 147.084L246.005 147.327C245.521 148.659 245.002 150.001 244.463 151.317ZM247.382 143.277L246.703 143.061C247.13 141.717 247.535 140.346 247.906 138.986L248.592 139.174C248.219 140.543 247.812 141.923 247.382 143.277ZM249.633 135.024L248.939 134.865C249.254 133.489 249.545 132.089 249.802 130.704L250.502 130.835C250.243 132.229 249.951 133.639 249.633 135.024ZM251.198 126.613L250.493 126.512C250.694 125.116 250.868 123.697 251.01 122.294L251.719 122.366C251.575 123.778 251.4 125.207 251.198 126.613ZM252.064 118.101L251.353 118.058C251.438 116.651 251.495 115.223 251.521 113.812L252.233 113.826C252.206 115.246 252.149 116.684 252.064 118.101ZM252.227 109.547L251.515 109.562C251.501 108.943 251.482 108.324 251.457 107.706C251.426 106.914 251.384 106.109 251.334 105.316L252.044 105.271C252.095 106.07 252.137 106.879 252.169 107.678C252.194 108.3 252.213 108.923 252.227 109.547ZM250.979 101.083C250.833 99.6802 250.655 98.2619 250.452 96.8674L251.156 96.7644C251.361 98.1686 251.54 99.5966 251.687 101.009L250.979 101.083ZM249.753 92.6762C249.492 91.2913 249.2 89.8919 248.883 88.5169L249.577 88.3569C249.896 89.7414 250.19 91.1503 250.452 92.5449L249.753 92.6762ZM247.845 84.396C247.472 83.0347 247.067 81.6636 246.639 80.3204L247.318 80.1046C247.748 81.457 248.156 82.8376 248.531 84.2081L247.845 84.396ZM245.269 76.2971C244.787 74.9712 244.272 73.6372 243.736 72.3322L244.395 72.0619C244.934 73.376 245.453 74.7191 245.938 76.0539L245.269 76.2971ZM242.043 68.4327C241.455 67.15 240.832 65.8622 240.192 64.6051L240.827 64.2822C241.471 65.5479 242.098 66.8443 242.69 68.1358L242.043 68.4327ZM238.187 60.8558C237.496 59.6258 236.771 58.3929 236.03 57.1917L236.636 56.8181C237.382 58.0275 238.112 59.2688 238.808 60.5074L238.187 60.8558ZM233.725 53.6185C232.935 52.4482 232.111 51.2786 231.274 50.1424L231.848 49.7204C232.69 50.8644 233.52 52.0421 234.315 53.2205L233.725 53.6185ZM228.683 46.7694C227.8 45.6671 226.882 44.5691 225.955 43.506L226.492 43.0381C227.425 44.1087 228.349 45.2142 229.239 46.3241L228.683 46.7694ZM223.094 40.3572C222.123 39.3311 221.117 38.3123 220.106 37.3287L220.602 36.8183C221.62 37.8086 222.633 38.8346 223.611 39.8675L223.094 40.3572ZM216.994 34.4257C215.941 33.4836 214.855 32.5509 213.764 31.6534L214.217 31.1037C215.315 32.0075 216.409 32.9467 217.469 33.8953L216.994 34.4257ZM210.422 29.0164C209.3 28.1672 208.142 27.3283 206.981 26.5231L207.387 25.938C208.556 26.7488 209.722 27.5935 210.852 28.4485L210.422 29.0164ZM203.44 24.1733C202.252 23.4191 201.029 22.6777 199.806 21.9695L200.162 21.3533C201.394 22.0662 202.625 22.8128 203.821 23.5721L203.44 24.1733Z" fill="#E6E6E6"/>
<path d="M241.847 157.191L241.206 156.881C241.515 156.241 241.817 155.599 242.112 154.955L242.759 155.251C242.462 155.899 242.158 156.546 241.847 157.191Z" fill="#E6E6E6"/>
<path d="M195.084 22.3141L195.756 22.0774L194.586 18.7678L197.972 17.8423L197.784 17.1552L193.659 18.283L195.084 22.3141Z" fill="#E6E6E6"/>
<path d="M239.855 153.668L240.532 153.445L241.627 156.78L244.874 155.445L245.144 156.104L241.19 157.73L239.855 153.668Z" fill="#E6E6E6"/>
<path d="M218.968 205.592C218.654 205.756 218.334 205.911 218.009 206.058C217.713 206.192 217.413 206.317 217.108 206.435C216.996 206.477 216.883 206.52 216.769 206.562C215.872 206.888 214.951 207.142 214.014 207.322C213.549 207.413 213.079 207.485 212.603 207.537C212.21 207.582 211.813 207.613 211.412 207.632C211.126 207.646 210.84 207.653 210.553 207.653C209.413 207.653 208.276 207.546 207.157 207.334C206.865 207.282 206.579 207.219 206.293 207.15C204.911 206.819 203.573 206.325 202.308 205.679C202.194 205.622 202.081 205.561 201.967 205.503C201.799 205.414 201.635 205.32 201.471 205.223C201.55 205.114 201.635 205.006 201.722 204.901C202.67 203.726 203.855 202.764 205.2 202.077C206.545 201.391 208.019 200.996 209.527 200.918C211.035 200.839 212.542 201.079 213.951 201.623C215.36 202.166 216.638 203 217.703 204.07C218.073 204.441 218.416 204.838 218.729 205.257C218.812 205.367 218.891 205.478 218.968 205.592Z" fill="#C3C3C3"/>
<path d="M210.953 196.693C215.867 196.693 219.85 192.71 219.85 187.796C219.85 182.882 215.867 178.899 210.953 178.899C206.039 178.899 202.055 182.882 202.055 187.796C202.055 192.71 206.039 196.693 210.953 196.693Z" fill="#C3C3C3"/>
<path d="M213.32 196.705C216.529 194.951 217.708 190.927 215.954 187.718C214.2 184.509 210.176 183.33 206.967 185.084C203.758 186.838 202.579 190.862 204.333 194.071C206.087 197.28 210.111 198.459 213.32 196.705Z" fill="#E6E6E6"/>
<path d="M217.102 186.731C215.589 187.774 213.793 188.329 211.955 188.322C212.611 188.777 213.357 189.084 214.143 189.222C211.699 189.746 209.174 189.76 206.724 189.264C206.18 189.176 205.655 188.996 205.172 188.73C204.931 188.596 204.721 188.412 204.556 188.191C204.391 187.971 204.274 187.717 204.213 187.448C204.05 186.519 204.775 185.674 205.528 185.105C206.68 184.246 208.01 183.655 209.419 183.373C210.828 183.092 212.283 183.127 213.677 183.476C214.587 183.712 215.499 184.109 216.09 184.84C216.681 185.571 216.856 186.698 216.293 187.451L217.102 186.731Z" fill="#C3C3C3"/>
<path d="M211.884 171.229C211.739 171.218 211.592 171.209 211.444 171.202C211.148 171.187 210.85 171.18 210.549 171.18C207.558 171.18 204.614 171.916 201.975 173.322C199.335 174.728 197.082 176.762 195.414 179.244C193.746 181.725 192.714 184.58 192.408 187.554C192.103 190.529 192.534 193.533 193.663 196.302C193.722 196.449 193.784 196.597 193.85 196.741C195.358 200.159 197.873 203.035 201.059 204.987L201.175 205.055C201.274 205.114 201.371 205.171 201.467 205.224C201.632 205.323 201.797 205.415 201.963 205.505C202.077 205.564 202.192 205.623 202.304 205.68C203.569 206.327 204.908 206.82 206.29 207.151C206.575 207.221 206.861 207.283 207.153 207.336C208.272 207.548 209.409 207.654 210.549 207.654C210.836 207.654 211.122 207.647 211.409 207.634C211.809 207.617 212.206 207.584 212.599 207.54C213.076 207.487 213.546 207.415 214.011 207.325C214.947 207.144 215.869 206.89 216.766 206.565C216.88 206.521 216.994 206.479 217.104 206.436C217.411 206.319 217.71 206.194 218.006 206.06C218.331 205.913 218.651 205.757 218.965 205.593C222.119 203.94 224.726 201.408 226.471 198.304C226.479 198.288 226.487 198.272 226.497 198.256C227.982 195.579 228.77 192.572 228.786 189.51C228.803 186.449 228.049 183.433 226.593 180.74C225.137 178.047 223.026 175.764 220.455 174.102C217.885 172.44 214.937 171.451 211.884 171.229ZM228.067 192.764C227.714 194.605 227.072 196.379 226.164 198.019C226.148 198.048 226.133 198.076 226.117 198.103C224.409 201.161 221.838 203.65 218.726 205.259C218.414 205.421 218.099 205.574 217.78 205.716C217.514 205.834 217.242 205.948 216.968 206.054C216.854 206.098 216.735 206.144 216.619 206.183C215.843 206.466 215.049 206.694 214.241 206.864C213.642 206.992 213.037 207.087 212.428 207.149C212.053 207.191 211.673 207.219 211.289 207.232C211.043 207.243 210.797 207.25 210.549 207.25C209.446 207.25 208.346 207.148 207.263 206.943C206.603 206.822 205.952 206.662 205.311 206.464C204.335 206.163 203.387 205.779 202.477 205.316C202.372 205.261 202.266 205.206 202.163 205.149C202.014 205.07 201.864 204.989 201.72 204.903C201.61 204.842 201.5 204.776 201.393 204.712C201.329 204.675 201.267 204.638 201.204 204.598C198.171 202.724 195.765 199.988 194.293 196.741C194.227 196.597 194.164 196.45 194.102 196.302C192.968 193.592 192.521 190.644 192.8 187.72C193.08 184.795 194.078 181.985 195.705 179.539C197.333 177.093 199.54 175.088 202.129 173.7C204.719 172.313 207.611 171.587 210.549 171.586C210.85 171.586 211.148 171.593 211.444 171.611C211.592 171.615 211.739 171.626 211.884 171.637C214.388 171.827 216.825 172.543 219.034 173.74C221.243 174.936 223.174 176.585 224.702 178.58C226.23 180.574 227.319 182.868 227.899 185.312C228.479 187.757 228.536 190.296 228.067 192.764Z" fill="#C3C3C3"/>
<path d="M206.444 179.019C206.348 178.012 205.115 177.393 204.151 177.697C203.186 178.001 202.553 178.972 202.362 179.965C202.27 180.383 202.261 180.815 202.336 181.237C202.412 181.658 202.569 182.061 202.801 182.421C203.288 183.123 204.184 183.56 205.019 183.382C205.973 183.179 206.634 182.248 206.823 181.291C207.012 180.334 206.824 179.348 206.637 178.391L206.444 179.019Z" fill="#C3C3C3"/>
<path d="M220.021 180.463C219.926 179.456 218.692 178.836 217.728 179.14C216.764 179.444 216.13 180.415 215.939 181.408C215.847 181.826 215.838 182.259 215.914 182.68C215.989 183.102 216.147 183.504 216.378 183.865C216.865 184.566 217.761 185.004 218.597 184.826C219.55 184.623 220.211 183.691 220.4 182.735C220.589 181.778 220.402 180.792 220.214 179.835L220.021 180.463Z" fill="#C3C3C3"/>
<path d="M21.7653 119.225C19.641 120.585 17.1798 121.327 14.6575 121.367C12.1352 121.407 9.65153 120.744 7.48486 119.452C7.50793 119.408 7.5327 119.363 7.55916 119.32C8.25415 118.068 9.26699 117.02 10.4957 116.283C11.7244 115.546 13.1255 115.146 14.558 115.123C15.9904 115.101 17.4037 115.455 18.6553 116.153C19.907 116.85 20.9528 117.864 21.6876 119.094C21.6975 119.107 21.7058 119.122 21.7141 119.135C21.7306 119.163 21.7488 119.195 21.7653 119.225Z" fill="#C3C3C3"/>
<path d="M20.7619 105.199C20.7619 106.532 20.3666 107.836 19.6259 108.944C18.8853 110.052 17.8326 110.916 16.6009 111.427C15.3693 111.937 14.014 112.07 12.7065 111.81C11.399 111.55 10.198 110.908 9.25534 109.965C8.31268 109.023 7.67072 107.822 7.41064 106.514C7.15057 105.207 7.28405 103.851 7.79422 102.62C8.30438 101.388 9.16831 100.335 10.2768 99.5948C11.3852 98.8541 12.6884 98.4588 14.0215 98.4588C14.9079 98.4546 15.7863 98.626 16.606 98.9633C17.4257 99.3005 18.1704 99.7968 18.7972 100.424C19.4239 101.05 19.9202 101.795 20.2575 102.615C20.5947 103.434 20.7662 104.313 20.7619 105.199Z" fill="#C4C4C4"/>
<path d="M19.3069 109.382C19.2298 109.576 19.1409 109.765 19.0409 109.949C18.4027 111.116 17.3269 111.982 16.0501 112.356C14.7734 112.73 13.4003 112.582 12.2328 111.944C11.6542 111.628 11.1436 111.202 10.73 110.689C10.3164 110.175 10.008 109.586 9.82233 108.953C9.6367 108.321 9.57752 107.658 9.64816 107.003C9.71879 106.348 9.91787 105.713 10.234 105.134C10.5501 104.556 10.9771 104.046 11.4906 103.632C12.004 103.219 12.5939 102.911 13.2264 102.726C13.859 102.541 14.5218 102.482 15.1771 102.553C15.8323 102.624 16.4671 102.824 17.0452 103.14C18.1177 103.727 18.9392 104.684 19.3556 105.834C19.7721 106.983 19.7547 108.245 19.3069 109.382Z" fill="#E6E6E6"/>
<path d="M24.4296 98.4066C24.3239 98.291 24.2132 98.177 24.0992 98.0663C22.2635 96.2471 19.9511 94.9834 17.4286 94.4211C14.906 93.8587 12.2759 94.0204 9.84126 94.8877C7.40662 95.7549 5.26652 97.2923 3.66755 99.3228C2.06858 101.353 1.0758 103.794 0.803593 106.364C0.531388 108.934 0.990833 111.529 2.129 113.85C3.26716 116.17 5.03773 118.122 7.23669 119.48C9.43566 120.838 11.9735 121.547 14.5579 121.525C17.1423 121.504 19.6681 120.752 21.8442 119.358C22.6569 118.837 23.4127 118.231 24.0992 117.552C24.2116 117.442 24.3223 117.329 24.4296 117.214C26.8267 114.669 28.1616 111.306 28.1616 107.81C28.1616 104.315 26.8267 100.951 24.4296 98.4066ZM24.0992 117.118C23.3737 117.87 22.5631 118.534 21.6839 119.099C21.6823 119.1 21.6806 119.1 21.679 119.102C19.5783 120.447 17.1447 121.18 14.6508 121.22C12.1568 121.26 9.7011 120.604 7.55874 119.327C7.55713 119.327 7.55713 119.325 7.55544 119.325C5.91234 118.345 4.49775 117.025 3.40655 115.454C2.31535 113.883 1.57276 112.096 1.2286 110.214C0.884432 108.333 0.946642 106.399 1.41106 104.543C1.87547 102.687 2.73135 100.952 3.9213 99.4541C5.11125 97.9562 6.60775 96.73 8.31043 95.8578C10.0131 94.9857 11.8826 94.4876 13.7935 94.3972C15.7045 94.3068 17.6126 94.626 19.3901 95.3334C21.1675 96.0409 22.7731 97.1203 24.0992 98.4991C24.2132 98.6148 24.3223 98.7337 24.4296 98.8543C26.6359 101.315 27.856 104.504 27.856 107.809C27.856 111.113 26.6359 114.302 24.4296 116.763C24.3239 116.883 24.2132 117.002 24.0992 117.118Z" fill="#C3C3C3"/>
<path d="M19.4894 99.5998C19.1573 99.0362 18.676 98.5753 18.0985 98.268C17.521 97.9607 16.8698 97.8191 16.2168 97.8586C15.5314 97.9099 14.8793 98.1625 14.239 98.4122L10.9837 99.6821C10.1413 100.011 9.21879 100.413 8.85326 101.24C8.514 102.008 8.76712 102.894 9.02334 103.693L10.2413 107.492C10.4082 106.639 10.5777 105.777 10.9315 104.983C11.2852 104.188 11.8448 103.456 12.6184 103.059C13.464 102.625 14.4606 102.634 15.4098 102.68C16.7542 102.745 18.2159 102.916 19.1711 103.864C19.6782 104.403 20.022 105.074 20.1625 105.8C20.3008 106.522 20.3704 107.256 20.3704 107.992C20.9216 107.044 21.386 106.048 21.7578 105.017C22.0637 104.249 22.238 103.435 22.2734 102.609C22.2807 101.785 22.0472 100.934 21.4972 100.319C20.9472 99.7043 20.0511 99.3725 19.263 99.6158" fill="#C4C4C4"/>
</svg>
