<svg xmlns="http://www.w3.org/2000/svg" width="27.971" height="18.592" viewBox="0 0 27.971 18.592"><defs><style>.a{fill:#e60a0a;}</style></defs><path class="a" d="M35.25,52.5H29.217A4.752,4.752,0,0,0,24.5,57.217V60.4h.823V57.217a3.909,3.909,0,0,1,3.894-3.894H35.25a3.909,3.909,0,0,1,3.894,3.894V60.4h.823V57.217A4.752,4.752,0,0,0,35.25,52.5Z" transform="translate(-24.5 -41.805)"/><path class="a" d="M34.717,42.543A4.772,4.772,0,1,0,30,37.771,4.775,4.775,0,0,0,34.717,42.543Zm0-8.665a3.949,3.949,0,1,1-3.949,3.949A4,4,0,0,1,34.717,33.878Z" transform="translate(-26.984 -33)"/><g transform="translate(15.466 0.055)"><path class="a" d="M65.611,57.217V60.4h-.823V57.217a3.909,3.909,0,0,0-3.894-3.894H54.861a3.127,3.127,0,0,0-.713.055,3.521,3.521,0,0,0-.548-.713,4.675,4.675,0,0,1,1.261-.165h6.033A4.752,4.752,0,0,1,65.611,57.217Z" transform="translate(-53.106 -41.86)"/><path class="a" d="M57.471,33.1a4.771,4.771,0,1,0,4.771,4.771A4.775,4.775,0,0,0,57.471,33.1Zm0,8.665a3.949,3.949,0,1,1,3.949-3.949A3.932,3.932,0,0,1,57.471,41.765Z" transform="translate(-52.7 -33.1)"/></g></svg>