<svg xmlns="http://www.w3.org/2000/svg" width="27.981" height="28.278" viewBox="0 0 27.981 28.278"><defs><style>.a{fill:#e60a0a;}</style></defs><g transform="translate(-17 -17)"><g transform="translate(17 17)"><path class="a" d="M60.488,86a1.488,1.488,0,1,0,1.488,1.488A1.488,1.488,0,0,0,60.488,86Zm0,2.381a.893.893,0,1,1,.893-.893.893.893,0,0,1-.893.893Z" transform="translate(-46.498 -65.461)"/><path class="a" d="M44.683,44.683H42.057a1.519,1.519,0,0,0,.3-1.12l-.762-5.7a4.531,4.531,0,0,0-.972-2.259.3.3,0,1,0-.462.375,3.938,3.938,0,0,1,.844,1.962l.762,5.7a.921.921,0,0,1-.914,1.042h-1.8l.819-10.648a.893.893,0,0,0-.89-.961h-3.5L34.625,31.8l-.212-2.108.308-.281a3.45,3.45,0,0,0,1.129-2.551v-.78a1.213,1.213,0,0,0,.913-1.173v-.608a1.214,1.214,0,0,0-.913-1.174v-.569a5.122,5.122,0,0,0,.608-2.517c0-2.014-1.84-3.036-5.469-3.036-3.381,0-4.265,1.7-4.485,2.4a1.3,1.3,0,0,0-.869.239,1.2,1.2,0,0,0-.419,1,2.574,2.574,0,0,0,.913,1.97v.507a1.212,1.212,0,0,0-.913,1.173V24.9a1.213,1.213,0,0,0,.913,1.174v.779a3.45,3.45,0,0,0,1.129,2.55l.309.281-.213,2.128-.628,1.259H23a.893.893,0,0,0-.89.961l.819,10.648h-1.8a.921.921,0,0,1-.914-1.041l.762-5.7a3.938,3.938,0,0,1,.844-1.962.3.3,0,1,0-.462-.375,4.531,4.531,0,0,0-.972,2.258l-.762,5.7a1.518,1.518,0,0,0,.3,1.119H17.3a.3.3,0,0,0,0,.6H44.683a.3.3,0,0,0,0-.6Zm-10.5-12.271h0l.091-.075.492.737H33.369ZM25.812,20.644A.647.647,0,0,1,26,20.111a.88.88,0,0,1,.658-.091c.007,0,.015,0,.022,0s.017.007.027.007a.948.948,0,0,1,.242.21.3.3,0,1,0,.436-.406,1.819,1.819,0,0,0-.307-.271c.177-.547.925-1.966,3.912-1.966,3.234,0,4.874.821,4.874,2.44a4.647,4.647,0,0,1-.505,2.177.419.419,0,0,1-.286-.043,1.216,1.216,0,0,1-.447-.685.3.3,0,0,0-.454-.175c-2.441,1.628-7.016.974-7.625.878A1.978,1.978,0,0,1,25.812,20.644Zm.912,6.212v-1.04a.3.3,0,0,0-.3-.3.617.617,0,0,1-.615-.615v-.608a.616.616,0,0,1,.615-.615.3.3,0,0,0,.3-.3v-.566A19.432,19.432,0,0,0,29.356,23a10.183,10.183,0,0,0,4.828-1,1.514,1.514,0,0,0,.6.692,1,1,0,0,0,.471.12v.571a.3.3,0,0,0,.3.3.617.617,0,0,1,.615.615V24.9a.616.616,0,0,1-.615.615.3.3,0,0,0-.3.3v1.04a2.854,2.854,0,0,1-.934,2.11l-1.415,1.287a2.875,2.875,0,0,1-2.946.547,2.766,2.766,0,0,1-.888-.547l-1.415-1.287a2.853,2.853,0,0,1-.934-2.11Zm1.947,3.837a3.354,3.354,0,0,0,1.075.663,3.439,3.439,0,0,0,3.56-.662l.558-.507.159,1.583-1.6,1.305H29.552l-1.6-1.305.159-1.583Zm-.928,1.672.057.046h0l.809.662H27.391ZM23.527,44.683,22.7,33.99a.3.3,0,0,1,.3-.32H38.98a.3.3,0,0,1,.3.32l-.822,10.693Z" transform="translate(-17 -17)"/></g></g></svg>