<svg xmlns="http://www.w3.org/2000/svg" width="18.621" height="27.524" viewBox="0 0 18.621 27.524"><defs><style>.a{fill:#e60a0a;stroke:#e60a0a;stroke-width:0.2px;}</style></defs><g transform="translate(-20.899 -959.226)"><path class="a" d="M21.287,6.966A.318.318,0,0,0,21,7.293V33.97a.318.318,0,1,0,.635,0V22.111A10.856,10.856,0,0,1,27.3,20.652a8.62,8.62,0,0,1,3.7,1.28,10.485,10.485,0,0,0,3.464,1.489,7,7,0,0,0,4.7-1.211s.007,0,.01,0a.317.317,0,0,0,.05-.02l.03-.02a.318.318,0,0,0,.149-.228l.01-.01q0-.015,0-.03t0-.03c.011-3.9-.011-7.829,0-11.721a.318.318,0,0,0,0-.04V10.1a.318.318,0,0,0-.486-.238,6.357,6.357,0,0,1-4.367,1.171,10.108,10.108,0,0,1-3.255-1.409,9.29,9.29,0,0,0-3.97-1.37c-.2-.015-.412-.022-.625-.02a12.012,12.012,0,0,0-5.081,1.409V7.293a.318.318,0,0,0-.347-.328Zm5.449,1.906c.2,0,.382.006.566.02a8.62,8.62,0,0,1,3.7,1.28,10.485,10.485,0,0,0,3.464,1.489,6.768,6.768,0,0,0,4.317-1c-.008,3.672.009,7.38,0,11.046a6.256,6.256,0,0,1-4.218,1.082,10.108,10.108,0,0,1-3.255-1.409,9.285,9.285,0,0,0-3.97-1.36,11.245,11.245,0,0,0-5.707,1.389V10.35A11.666,11.666,0,0,1,26.736,8.871Z" transform="translate(0 952.362)"/></g></svg>